# xmcd CD database file
#
# Track frame offsets:
#	150
#	15109
#	29339
#	43366
#	57894
#	71313
#	84803
#	100518
#	116551
#	129880
#	146820
#	160319
#	173442
#	190699
#
# Disc length: 2816 seconds
#
# Revision: 0
# Processed by: cddbd v1.5.2PL0 Copyright (c) Steve Scherf et al.
# Submitted via: CDex 1.70beta2
#
DISCID=a30afe0e
DTITLE=Diego and Grabriel - Ao vivo 2010
DYEAR=2010
DGENRE=Country
TTITLE0=Te satisfazer
TTITLE1=Não consigo te esquecer
TTITLE2=Ioio (Um canto pra você amor)
TTITLE3=Esperando você
TTITLE4=Pra Esquecer Essa Mulher
TTITLE5=Eu quero ter você
TTITLE6=Caso complicado
TTITLE7=Se Toca
TTITLE8=Não preciso desse amor
TTITLE9=Eu Não Deixei De Te Amar
TTITLE10=Por toda a Vida (Menina)
TTITLE11=Você me iludiu
TTITLE12=Jogo do amor
TTITLE13=Só você em mim
EXTD=YEAR: 2010
EXTT0=
EXTT1=
EXTT2=
EXTT3=
EXTT4=
EXTT5=
EXTT6=
EXTT7=
EXTT8=
EXTT9=
EXTT10=
EXTT11=
EXTT12=
EXTT13=
PLAYORDER=
